# xmcd
#
# Track frame offsets: 
#        150
#        13865
#        23325
#        32945
#        42722
#        55130
#        66727
#        79588
#        91051
#        102850
#        111205
#        123013
#        136392
#        145275
#        157943
#        171489
#        185794
#        199282
#        213927
#        227035
#        237939
#        250309
#        262386
#        275661
#
# Disc length: 3856 seconds
#
# Revision: 2
# Processed by: cddbd v1.5.2PL0 Copyright (c) Steve Scherf et al.
# Submitted via: ExactAudioCopyFreeDBPlugin 1.0
#
DISCID=660f0e18
DTITLE=Various Artist - The Goldwax Story
DYEAR=2004
DGENRE=Soul
TTITLE0=Spencer Wiggins - I Never Loved a Woman (The Way I Love You)
TTITLE1=Percy Milem - Crying Baby Baby Baby
TTITLE2="Wee" Willie Walker - I Don't Want to Take a Chance
TTITLE3=Barbara Perry - Welcome Home Baby
TTITLE4=The Ovations - Peace of Mind
TTITLE5=Eddie Jefferson - When You Look in the Mirror
TTITLE6=Timmy Thomas - It's My Life
TTITLE7="Wee" Willie Walker - I Ain't Gonna Cheat on You No More
TTITLE8=Barbara Perry - Say You Need It
TTITLE9=Gene "Bowlegs" Miller - Toddlin'
TTITLE10=George and Greer - Good Times
TTITLE11=Dorothy Williams - Country Style
TTITLE12=Phillip and The Faithfuls - Love Me
TTITLE13=Oboe - She's Better Than You (with The Keys)
TTITLE14=Percy Milem - I Don't Know What You've Got (But It's Got Me)
TTITLE15=The Ovations - Happiness
TTITLE16=Barbara Perry - Merry Go Round of Love
TTITLE17=James Carr - A Woman is a Man's Best Friend (alternate versio
TTITLE17=n)
TTITLE18=O.V. Wright - There Goes My Used to Be (with The Keys)
TTITLE19=The Lyrics - The Side Wind (with The Topnotes)
TTITLE20=The Vel Tones - Darling
TTITLE21=Percy Milem - I'm Crying Over You
TTITLE22=(unknown artist) - If You're Not With the One You Love
TTITLE23=O.B. McClinton - A Man Needs a Woman
EXTD=Kent CD 225
EXTT0=
EXTT1=
EXTT2=
EXTT3=
EXTT4=
EXTT5=
EXTT6=
EXTT7=
EXTT8=
EXTT9=
EXTT10=
EXTT11=
EXTT12=
EXTT13=
EXTT14=
EXTT15=
EXTT16=
EXTT17=
EXTT18=
EXTT19=
EXTT20=
EXTT21=
EXTT22=
EXTT23=
PLAYORDER=
